<?xml version="1.0" encoding="UTF-8" standalone="no"?>
<!-- Generator: Adobe Illustrator 21.1.0, SVG Export Plug-In . SVG Version: 6.00 Build 0)  -->

<svg
   version="1.1"
   id="RED_-_INNOVATION_-_MCC"
   x="0px"
   y="0px"
   viewBox="0 0 589.45592 219.97796"
   xml:space="preserve"
   sodipodi:docname="mmc_logo.svg"
   width="589.45593"
   height="219.97797"
   inkscape:version="1.1 (c68e22c387, 2021-05-23)"
   xmlns:inkscape="http://www.inkscape.org/namespaces/inkscape"
   xmlns:sodipodi="http://sodipodi.sourceforge.net/DTD/sodipodi-0.dtd"
   xmlns="http://www.w3.org/2000/svg"
   xmlns:svg="http://www.w3.org/2000/svg"><defs
   id="defs59" /><sodipodi:namedview
   id="namedview57"
   pagecolor="#ffffff"
   bordercolor="#666666"
   borderopacity="1.0"
   inkscape:pageshadow="2"
   inkscape:pageopacity="0.0"
   inkscape:pagecheckerboard="0"
   showgrid="false"
   showguides="true"
   inkscape:guide-bbox="true"
   inkscape:snap-page="true"
   fit-margin-top="25"
   fit-margin-left="25"
   fit-margin-bottom="25"
   fit-margin-right="25"
   inkscape:zoom="1.470131"
   inkscape:cx="374.79653"
   inkscape:cy="99.650983"
   inkscape:window-width="1920"
   inkscape:window-height="1017"
   inkscape:window-x="1272"
   inkscape:window-y="-8"
   inkscape:window-maximized="1"
   inkscape:current-layer="RED_-_INNOVATION_-_MCC"><sodipodi:guide
     position="-2.399893e-07,219.97796"
     orientation="1,0"
     id="guide920" /><sodipodi:guide
     position="-2.399893e-07,219.97796"
     orientation="0,-1"
     id="guide922" /><sodipodi:guide
     position="589.45592,219.97796"
     orientation="1,0"
     id="guide924" /><sodipodi:guide
     position="589.45592,0"
     orientation="0,-1"
     id="guide926" /></sodipodi:namedview>
<style
   type="text/css"
   id="style2">
	.st0{fill:#EF373E;}
	.st1{fill:#B4B2B4;}
	.st2{fill:#26225E;}
</style>
<rect
   style="opacity:1;fill:#fcfcfc;stroke:none;stroke-width:0.755906;stroke-linecap:round;stop-color:#000000;fill-opacity:1"
   id="rect950"
   width="589.45593"
   height="219.97797"
   x="-2.399893e-07"
   y="8.000045e-07" /><g
   id="g54"
   transform="translate(25.377953,25)">
	<path
   class="st0"
   d="m 18.6,75.5 c 4.7,4.5 9.4,8.2 14.3,11.4 3,2 6.3,3.7 9.6,5.1 -2.8,-2.4 -5.1,-5.2 -7,-8.4 -2.4,-4 -4,-8.4 -4.6,-12.9 C 28.1,56.8 28.8,34.1 47.9,5.3 L 50.8,0.9 C 50.7,0.6 50.7,0.3 50.6,0.1 43.4,1.8 36.6,4.6 30.3,8.6 34.6,15 33.8,23.4 28.3,28.8 22.9,34.2 14.5,35 8.2,30.8 4.4,36.9 1.7,43.6 0,50.6 c 7.4,1.5 12.8,8 12.8,15.7 0,0.9 -0.1,1.9 -0.3,2.8 2.3,2.6 4.3,4.6 6.1,6.4 z"
   id="path4" />
	<path
   class="st1"
   d="M 101.9,8.2 C 95.7,4.4 89.1,1.6 82.1,0 80.7,7.6 74.2,13.1 66.3,13.1 c -5.6,0 -10.8,-3 -13.7,-7.8 -4,6.1 -7.8,12.1 -10.9,18.7 -2.8,5.9 -4.9,11.5 -6.4,17.1 -0.9,3.5 -1.5,7.1 -1.9,10.7 2.9,-6.7 7.8,-12.4 14.2,-16.2 0.3,-0.2 0.7,-0.4 1,-0.5 l 0.5,-0.3 C 59,29 76.1,22.9 102,26.8 97.9,21.3 97.8,13.8 101.9,8.2 Z"
   id="path6" />
	<path
   class="st1"
   d="m 39.7,122.5 c 7.2,-2.7 14.1,-5.5 20.8,-9 5.7,-3.1 10.7,-6.4 15.2,-10.1 2.8,-2.3 5.4,-4.8 7.8,-7.6 -5.8,3.5 -12.5,5.2 -19.2,4.9 -1.3,-0.1 -2.6,-0.2 -4,-0.4 C 48.4,99 30.3,93.4 11.2,73.5 8.9,77.9 4.8,81 0,82 c 1.7,7 4.4,13.7 8.2,19.9 6.3,-4.2 14.7,-3.4 20.1,2 5.5,5.5 6.3,13.9 2,20.2 0.5,0.3 1.1,0.7 1.6,1 3.4,-1.1 7.4,-2.5 7.8,-2.6 z"
   id="path8" />
	<path
   class="st1"
   d="m 68.9,30.8 c 1.8,0.2 3.6,0.5 5.3,0.9 6,1.5 11.5,4.6 16,9 19,17 23.8,43.8 25,58.6 3.3,0 6.5,1.1 9.1,3 3.9,-6.2 6.7,-13 8.4,-20.1 -7.7,-1.2 -13.5,-7.9 -13.5,-15.8 0,-7.9 5.7,-14.6 13.5,-15.8 -1.7,-7.1 -4.5,-13.9 -8.4,-20.1 0.1,0.2 -3.3,1.8 -3.6,1.9 -1.3,0.5 -2.7,0.8 -4.1,1 -1.4,0.1 -2.8,0.1 -4.2,-0.1 -2.5,-0.4 -4.8,-1.3 -7.2,-1.8 C 102.8,31 100.3,30.6 97.9,30.2 91.4,29.3 85.5,29.1 79.7,29.4 76,29.5 72.4,30 68.9,30.8 Z"
   id="path10" />
	<path
   class="st1"
   d="m 109.5,85.3 c -1.2,-6.4 -2.8,-12.2 -4.9,-17.6 -1.3,-3.4 -2.9,-6.7 -4.8,-9.8 1.2,5.4 1.2,11 -0.2,16.3 -0.6,2.4 -1.5,4.9 -2.7,7.2 -11.1,24.9 -37.6,38 -52.4,43.5 l -7.5,2.9 c 4.4,2.1 9,3.7 13.7,4.8 1.4,-7.6 7.9,-13.1 15.8,-13.1 7.8,0 14.4,5.5 15.8,13.1 7,-1.6 13.6,-4.4 19.7,-8.2 -4.5,-6.4 -3.8,-14.9 1.8,-20.5 2.1,-2.1 4.7,-3.5 7.5,-4.2 -0.5,-5.7 -1.1,-10.2 -1.8,-14.4 z"
   id="path12" />
	<path
   class="st2"
   d="m 175.8,158.6 h -6.5 l -1.3,4 c -0.4,0.3 -1.1,0.4 -2,0.4 -1,0 -1.5,-0.1 -2,-0.4 l 6.2,-18 c 0.5,-0.2 1.4,-0.3 2.3,-0.3 1,0 1.8,0.1 2.3,0.3 l 6.2,18 c -0.4,0.2 -1,0.4 -2,0.4 -1,0 -1.6,-0.1 -2,-0.4 z m -1,-3.2 -1,-3 c -0.5,-1.6 -0.9,-3.5 -1.2,-5.3 h -0.2 c -0.3,1.9 -0.7,3.8 -1.2,5.4 l -1,3 h 4.6 z m 15.5,7.2 c -0.4,0.2 -1,0.3 -1.9,0.3 -0.8,0 -1.4,-0.1 -1.8,-0.3 v -18 c 0.6,-0.2 1.4,-0.3 2.5,-0.3 1.1,0 1.9,0.1 2.5,0.3 l 5,9 c 0.6,1.2 1.3,3.2 1.6,4.7 h 0.2 v -13.7 c 0.4,-0.2 0.9,-0.3 1.8,-0.3 0.8,0 1.4,0.1 1.8,0.3 v 18 c -0.5,0.2 -1.3,0.3 -2.4,0.3 -1.1,0 -1.9,-0.1 -2.4,-0.3 l -5.3,-9.5 c -0.6,-1.1 -1.2,-2.9 -1.6,-4.7 h -0.2 v 14.2 z m 17.9,-5 c 0.2,1.8 1.4,2.7 4,2.7 1.6,0 3.1,-0.4 4,-0.8 0.1,1 -0.3,2.2 -0.9,2.9 -0.8,0.5 -2.3,0.9 -4.1,0.9 -4.5,0 -6.9,-2.6 -6.9,-6.8 0,-4.3 2.6,-7.1 6.6,-7.1 3.8,0 5.5,2.3 5.5,5.7 0,0.8 -0.2,1.8 -0.4,2.4 h -7.8 z m 4.7,-2.7 c 0.2,-1.3 -0.3,-2.7 -2.1,-2.7 -1.6,0 -2.6,1 -2.7,2.7 z m 9.5,-9.4 c 0,1.5 -0.9,2.3 -2.2,2.3 -1.5,0 -2.3,-0.8 -2.3,-2.3 0,-1.4 1,-2.2 2.3,-2.2 1.3,0 2.2,0.8 2.2,2.2 z m -4.1,4.7 c 0.4,-0.2 1,-0.3 1.9,-0.3 0.9,0 1.5,0.1 1.9,0.3 v 12.4 c -0.3,0.2 -1,0.3 -1.9,0.3 -0.9,0 -1.5,-0.1 -1.9,-0.3 z m 9.6,13.1 c -2.6,0 -3.3,-1.7 -3.3,-4 v -15 c 0.9,-0.5 2.1,-0.7 3.7,-0.7 v 15.1 c 0,1 0.3,1.2 1.1,1.2 0.6,0 1.1,-0.2 1.6,-0.5 0.1,1.1 -0.2,2.5 -0.7,3.2 -0.7,0.5 -1.4,0.7 -2.4,0.7 z m 13.1,-3.2 c 2.3,0 3.2,-0.9 3.2,-2.2 0,-3.8 -8.6,-1.8 -8.6,-8.3 0,-3.7 2.4,-5.6 6.4,-5.6 1.7,0 3.2,0.4 4.5,1.1 0.6,0.9 0.8,2.4 0.7,3.6 -1.4,-0.8 -3.2,-1.4 -4.9,-1.4 -1.9,0 -2.8,0.7 -2.8,1.9 0,3.6 8.5,1.7 8.5,8.3 0,4.5 -3.1,6 -7,6 -1.9,0 -3.7,-0.4 -5.1,-1 -0.6,-1 -0.8,-2.6 -0.7,-3.7 1.5,0.7 3.9,1.3 5.8,1.3 z m 16.8,1.2 c -0.5,1 -1.6,2 -3.7,2 -2.6,0 -5.2,-1.7 -5.2,-6.4 0,-4.9 2.8,-7.5 7.4,-7.5 2,0 3.7,0.5 5,1.4 v 18 c -0.3,0.2 -1,0.3 -1.9,0.3 -0.9,0 -1.5,-0.1 -1.9,-0.3 v -3.2 c 0,-1.4 0.1,-3.1 0.3,-4.3 z m 0,-8.5 c -0.4,-0.2 -0.9,-0.3 -1.5,-0.3 -2.4,0 -3.4,1.5 -3.4,4 0,2.4 0.9,3.4 2.6,3.4 1.2,0 1.9,-0.6 2.4,-1.2 v -5.9 z m 14.4,8.5 c -0.6,1.2 -1.8,2.1 -4,2.1 -2,0 -4.3,-0.7 -4.3,-5 v -7.9 c 0.9,-0.5 2.1,-0.8 3.7,-0.8 v 8 c 0,1.4 0.4,2.2 1.9,2.2 1.2,0 2,-0.5 2.5,-1.1 v -8.6 c 0.4,-0.2 1,-0.3 1.9,-0.3 0.9,0 1.5,0.1 1.9,0.3 v 12.3 c -0.7,0.4 -1.7,0.6 -2.9,0.6 l -0.4,-1.8 z m 10.3,-15.8 c 0,1.5 -0.9,2.3 -2.2,2.3 -1.5,0 -2.3,-0.8 -2.3,-2.3 0,-1.4 1,-2.2 2.3,-2.2 1.2,0 2.2,0.8 2.2,2.2 z m -4.2,4.7 c 0.4,-0.2 1,-0.3 1.9,-0.3 0.9,0 1.5,0.1 1.9,0.3 v 12.4 c -0.3,0.2 -1,0.3 -1.9,0.3 -0.9,0 -1.5,-0.1 -1.9,-0.3 z m 13.2,-0.7 c 0.5,0 0.9,0.1 1.2,0.2 0.4,0.6 0.5,1.4 0.5,2.3 0,0.7 -0.1,1.2 -0.2,1.6 -0.5,-0.3 -1,-0.4 -1.8,-0.4 -1.3,0 -2.3,0.9 -2.8,2.2 v 7.2 c -0.3,0.2 -1,0.3 -1.9,0.3 -0.9,0 -1.5,-0.1 -1.9,-0.3 v -12.3 c 0.7,-0.4 1.8,-0.6 3,-0.6 l 0.3,2.4 h 0.2 c 0.4,-1.4 1.2,-2.6 3.4,-2.6 z m 5.3,8.1 c 0.2,1.8 1.4,2.7 4,2.7 1.6,0 3.1,-0.4 4,-0.8 0.1,1 -0.3,2.2 -0.9,2.9 -0.8,0.5 -2.3,0.9 -4.1,0.9 -4.5,0 -6.9,-2.6 -6.9,-6.8 0,-4.3 2.6,-7.1 6.6,-7.1 3.8,0 5.5,2.3 5.5,5.7 0,0.8 -0.2,1.8 -0.4,2.4 h -7.8 z m 4.7,-2.7 c 0.2,-1.3 -0.3,-2.7 -2.1,-2.7 -1.6,0 -2.6,1 -2.7,2.7 z m 9.7,-10.2 c 1.4,-0.3 3.5,-0.5 5.4,-0.5 5.2,0 8.3,1.8 8.3,6.3 0,4.6 -3.2,6.6 -7.1,6.6 -0.8,0 -2.1,-0.1 -2.8,-0.2 v 5.6 c -0.4,0.2 -1,0.3 -1.9,0.3 -0.9,0 -1.6,-0.1 -2,-0.3 v -17.8 z m 3.9,3 v 6 c 0.5,0.1 1.5,0.2 2.3,0.2 2.3,0 3.7,-0.9 3.7,-3.1 0,-2.3 -1.5,-3.2 -4.1,-3.2 -0.7,-0.1 -1.3,0 -1.9,0.1 z m 17.9,1.8 c 0.5,0 0.9,0.1 1.2,0.2 0.4,0.6 0.5,1.4 0.5,2.3 0,0.7 -0.1,1.2 -0.2,1.6 -0.5,-0.3 -1,-0.4 -1.8,-0.4 -1.3,0 -2.3,0.9 -2.8,2.2 v 7.2 c -0.3,0.2 -1,0.3 -1.9,0.3 -0.9,0 -1.5,-0.1 -1.9,-0.3 v -12.3 c 0.7,-0.4 1.8,-0.6 3,-0.6 l 0.3,2.4 h 0.2 c 0.5,-1.4 1.3,-2.6 3.4,-2.6 z m 14.4,6.7 c 0,4.6 -2.4,7.1 -6.4,7.1 -4.1,0 -6.4,-2.4 -6.4,-7.1 0,-4.2 2.6,-6.7 6.4,-6.7 3.8,0 6.4,2.3 6.4,6.7 z m -6.5,4.1 c 1.8,0 2.6,-1.5 2.6,-4 0,-2.3 -0.9,-3.7 -2.6,-3.7 -1.7,0 -2.6,1.4 -2.6,3.7 0.1,2.5 0.9,4 2.6,4 z m 9.3,-2.2 c -1.2,-0.8 -1.7,-2.2 -1.7,-3.8 0,-3.2 2.3,-4.8 5.6,-4.8 1.2,0 2.1,0.2 2.9,0.5 h 3.7 c 0.3,0.8 0.5,1.8 0.5,2.7 h -1.9 v 0.1 c 0.2,0.2 0.4,0.8 0.4,1.6 0,3 -2.1,4.7 -5.5,4.7 -0.6,0 -1.2,-0.1 -1.4,-0.2 -0.3,0.2 -0.4,0.5 -0.4,0.8 0,0.7 0.9,0.9 2.6,0.9 3.7,0 6.3,0.7 6.3,4.1 0,3.5 -2.7,4.9 -7,4.9 -3.9,0 -6.4,-1.1 -6.4,-4.1 0,-1.5 0.8,-2.7 2,-2.9 v -0.2 c -0.7,-0.4 -1.1,-1.1 -1.1,-1.9 0,-1.2 0.6,-2 1.5,-2.2 v -0.2 z m 2,5.3 c -0.6,0.3 -0.9,0.9 -0.9,1.5 0,1.4 1.4,1.8 3.2,1.8 2.1,0 3.2,-0.5 3.2,-1.8 0,-1 -0.7,-1.3 -3.4,-1.3 -0.9,0 -1.5,-0.1 -2.1,-0.2 z m 1.9,-7 c 1.4,0 2.1,-0.8 2.1,-2.1 0,-1.3 -0.7,-2.1 -2.1,-2.1 -1.4,0 -2.2,0.8 -2.2,2.1 0.1,1.3 0.8,2.1 2.2,2.1 z m 15.1,-6.9 c 0.5,0 0.9,0.1 1.2,0.2 0.4,0.6 0.5,1.4 0.5,2.3 0,0.7 -0.1,1.2 -0.2,1.6 -0.5,-0.3 -1,-0.4 -1.8,-0.4 -1.3,0 -2.3,0.9 -2.8,2.2 v 7.2 c -0.3,0.2 -1,0.3 -1.9,0.3 -0.9,0 -1.5,-0.1 -1.9,-0.3 v -12.3 c 0.7,-0.4 1.8,-0.6 3,-0.6 l 0.3,2.4 h 0.2 c 0.4,-1.4 1.2,-2.6 3.4,-2.6 z m 8.9,12 c -0.6,1.1 -1.8,1.9 -3.6,1.9 -2.3,0 -4.2,-1.1 -4.2,-4.1 0,-3.1 2.3,-4.4 5.3,-4.4 0.8,0 1.6,0.1 2.3,0.3 v -0.4 c 0,-1.6 -0.8,-2.1 -2.5,-2.1 -1.5,0 -3,0.4 -4.1,1.1 -0.3,-1 -0.2,-2.6 0.4,-3.4 0.9,-0.5 2.5,-0.8 4.4,-0.8 3.7,0 5.5,1.3 5.5,5.1 v 4.5 c 0,0.8 0.4,1 0.9,1 0.4,0 0.8,-0.1 1.1,-0.3 0.1,1 -0.2,2.3 -0.7,3 -0.5,0.4 -1.3,0.6 -2.1,0.6 -1.5,0 -2.3,-0.6 -2.5,-1.9 h -0.2 z m -0.1,-3.8 c -0.5,-0.2 -1.1,-0.3 -1.7,-0.3 -1.5,0 -2.2,0.6 -2.2,1.6 0,1 0.7,1.4 1.8,1.4 0.8,0 1.6,-0.3 2.2,-0.9 v -1.8 z m 10.4,4.9 c -0.3,0.2 -1,0.3 -1.9,0.3 -0.9,0 -1.5,-0.1 -1.9,-0.3 v -12.3 c 0.7,-0.4 1.8,-0.6 3,-0.6 l 0.2,2.1 h 0.2 c 0.6,-1.3 1.9,-2.4 4.2,-2.4 1.5,0 3,0.4 3.7,2.2 h 0.2 c 0.5,-1.2 1.8,-2.2 4.1,-2.2 1.9,0 4.2,0.7 4.2,4.9 v 8.2 c -0.3,0.2 -1,0.3 -1.9,0.3 -0.9,0 -1.5,-0.1 -1.9,-0.3 V 155 c 0,-1.3 -0.4,-2.2 -1.9,-2.2 -1.3,0 -2,0.7 -2.5,1.5 0,0.2 0.1,0.8 0.1,1.3 v 6.9 c -0.3,0.2 -0.9,0.3 -1.8,0.3 -0.9,0 -1.5,-0.1 -1.9,-0.3 V 155 c 0,-1.3 -0.4,-2.2 -1.9,-2.2 -1.3,0 -2,0.7 -2.5,1.5 v 8.3 z"
   id="path14" />
	<g
   id="g52">
		<path
   class="st0"
   d="m 203,24.4 h -0.5 c -0.5,3.5 -1.8,8.5 -2.8,11.5 l -6.8,22.4 c -0.9,0.4 -2.2,0.6 -4.2,0.6 -1.8,0 -3.2,-0.2 -4.1,-0.6 l -7.1,-22.7 c -0.9,-2.7 -2.2,-8 -2.5,-11.2 h -0.5 v 33.8 c -0.8,0.5 -2.1,0.6 -3.9,0.6 -1.7,0 -3,-0.2 -3.9,-0.6 V 18.1 c 1.6,-0.4 3.7,-0.6 6.4,-0.6 2.9,0 5,0.2 6.5,0.6 l 6.6,21.2 c 1,3.1 2,7.5 2.4,11.3 h 0.5 c 0.5,-3.9 1.4,-8.3 2.2,-11.2 l 6.3,-21.3 c 1.5,-0.4 3.6,-0.6 6.5,-0.6 2.8,0 4.9,0.2 6.4,0.6 v 40.1 c -0.8,0.5 -2,0.6 -3.9,0.6 -1.7,0 -3.1,-0.2 -3.9,-0.6 V 24.4 Z"
   id="path16" />
		<path
   class="st0"
   d="m 232.1,55.6 c -1.3,2.5 -4,4.1 -7.9,4.1 -5.1,0 -9.4,-2.5 -9.4,-9.2 0,-7 5.1,-9.7 11.7,-9.7 1.9,0 3.6,0.2 5.2,0.7 v -0.8 c 0,-3.5 -1.7,-4.8 -5.5,-4.8 -3.3,0 -6.6,0.9 -9.2,2.4 -0.7,-2.2 -0.4,-5.8 0.9,-7.7 2.1,-1.2 5.6,-1.9 9.9,-1.9 8.3,0 12.2,2.9 12.2,11.4 V 50 c 0,1.8 0.8,2.2 2,2.2 1,0 1.9,-0.3 2.5,-0.7 0.2,2.3 -0.5,5.1 -1.5,6.7 -1.2,0.8 -2.8,1.3 -4.8,1.3 -3.3,0 -5.1,-1.4 -5.6,-4.1 h -0.5 z m -0.3,-8.5 c -1.2,-0.5 -2.4,-0.7 -3.8,-0.7 -3.3,0 -5,1.4 -5,3.6 0,2.2 1.7,3 4,3 1.8,0 3.7,-0.6 4.8,-2 z"
   id="path18" />
		<path
   class="st0"
   d="m 257.1,39.6 6.8,-9.6 c 0.6,-0.2 2,-0.5 3.3,-0.5 2.4,0 4.5,0.5 5.4,1.1 l -8.7,12.1 c 2.9,5.1 6.2,10.2 10.2,15.3 -0.8,0.5 -2.6,0.7 -4.5,0.7 -2.2,0 -4.4,-0.3 -5.3,-0.7 -2.8,-3.7 -5.1,-7.2 -7.4,-11.6 h -2.5 V 58 c -0.7,0.4 -2.1,0.7 -4.1,0.7 -2,0 -3.4,-0.3 -4.2,-0.7 V 17.3 c 2,-1.1 4.7,-1.7 8.3,-1.7 v 24 z"
   id="path20" />
		<path
   class="st0"
   d="m 281.5,46.9 c 0.3,4 3.2,6 8.9,6 3.7,0 6.9,-0.8 9,-1.7 0.2,2.2 -0.7,5 -2.1,6.5 -1.9,1.1 -5.1,2 -9.1,2 -10.1,0 -15.4,-5.8 -15.4,-15.1 0,-9.6 5.8,-15.8 14.8,-15.8 8.4,0 12.3,5.2 12.3,12.8 0,1.8 -0.3,3.9 -0.9,5.4 h -17.5 z m 10.5,-6 c 0.5,-3 -0.6,-5.9 -4.8,-5.9 -3.6,0 -5.8,2.3 -6,5.9 z"
   id="path22" />
		<path
   class="st0"
   d="m 318.6,28.8 c 1.1,0 2,0.2 2.7,0.5 0.8,1.4 1.2,3 1.2,5.2 0,1.7 -0.2,2.7 -0.5,3.5 -1.1,-0.6 -2.2,-1 -4,-1 -2.9,0 -5.1,2 -6.2,5 v 16 c -0.7,0.4 -2.1,0.7 -4.1,0.7 -2,0 -3.4,-0.3 -4.2,-0.7 V 30.7 c 1.6,-0.9 4,-1.3 6.7,-1.3 l 0.6,5.3 h 0.5 c 0.7,-3.2 2.6,-5.9 7.3,-5.9 z"
   id="path24" />
		<path
   class="st0"
   d="m 332.1,53.3 c 2.9,0 4.1,-0.9 4.1,-2.6 0,-4.5 -13.1,-2.3 -13.1,-12.5 0,-5.9 3.7,-9.3 10.7,-9.3 2.9,0 5.9,0.6 8.2,2 1,1.7 1.7,4.8 1.4,7.1 -2.6,-1.6 -5.8,-2.6 -8.6,-2.6 -2.5,0 -3.2,0.8 -3.2,2.2 0,4.3 13.2,2.1 13.2,12.3 0,7.4 -5.1,10.1 -12.3,10.1 -3,0 -6.3,-0.5 -8.7,-1.6 -1.2,-2 -1.7,-5.5 -1.3,-7.4 2.2,1.2 6.4,2.3 9.6,2.3 z"
   id="path26" />
		<path
   class="st0"
   d="m 393.4,24.4 h -0.5 c -0.5,3.5 -1.8,8.5 -2.8,11.5 l -6.8,22.4 c -0.9,0.4 -2.2,0.6 -4.2,0.6 -1.8,0 -3.2,-0.2 -4.1,-0.6 l -7.1,-22.7 c -0.9,-2.7 -2.2,-8 -2.5,-11.2 h -0.5 v 33.8 c -0.8,0.5 -2.1,0.6 -3.9,0.6 -1.7,0 -3,-0.2 -3.9,-0.6 V 18.1 c 1.6,-0.4 3.7,-0.6 6.4,-0.6 2.9,0 5,0.2 6.5,0.6 l 6.6,21.2 c 1,3.1 2,7.5 2.4,11.3 h 0.5 c 0.5,-3.9 1.4,-8.3 2.2,-11.2 L 388,18.1 c 1.5,-0.4 3.6,-0.6 6.5,-0.6 2.8,0 4.9,0.2 6.4,0.6 v 40.1 c -0.8,0.5 -2,0.6 -3.9,0.6 -1.7,0 -3.1,-0.2 -3.9,-0.6 V 24.4 Z"
   id="path28" />
		<path
   class="st0"
   d="m 422.5,55.6 c -1.3,2.5 -4,4.1 -7.9,4.1 -5.1,0 -9.4,-2.5 -9.4,-9.2 0,-7 5.1,-9.7 11.7,-9.7 1.9,0 3.6,0.2 5.2,0.7 v -0.8 c 0,-3.5 -1.7,-4.8 -5.5,-4.8 -3.3,0 -6.6,0.9 -9.2,2.4 -0.7,-2.2 -0.4,-5.8 0.9,-7.7 2.1,-1.2 5.6,-1.9 9.9,-1.9 8.3,0 12.2,2.9 12.2,11.4 V 50 c 0,1.8 0.8,2.2 2,2.2 1,0 1.9,-0.3 2.5,-0.7 0.2,2.3 -0.5,5.1 -1.5,6.7 -1.2,0.8 -2.8,1.3 -4.8,1.3 -3.3,0 -5.1,-1.4 -5.6,-4.1 h -0.5 z m -0.3,-8.5 c -1.2,-0.5 -2.4,-0.7 -3.8,-0.7 -3.3,0 -5,1.4 -5,3.6 0,2.2 1.7,3 4,3 1.8,0 3.7,-0.6 4.8,-2 z"
   id="path30" />
		<path
   class="st0"
   d="m 447.5,39.6 6.8,-9.6 c 0.6,-0.2 2,-0.5 3.3,-0.5 2.4,0 4.5,0.5 5.4,1.1 l -8.7,12.1 c 2.9,5.1 6.2,10.2 10.2,15.3 -0.8,0.5 -2.6,0.7 -4.5,0.7 -2.2,0 -4.4,-0.3 -5.3,-0.7 -2.8,-3.7 -5.1,-7.2 -7.4,-11.6 h -2.5 V 58 c -0.7,0.4 -2.1,0.7 -4.1,0.7 -2,0 -3.4,-0.3 -4.2,-0.7 V 17.3 c 2,-1.1 4.7,-1.7 8.3,-1.7 v 24 z"
   id="path32" />
		<path
   class="st0"
   d="m 475.5,20 c 0,3.4 -2,5.2 -5,5.2 -3.3,0 -5.1,-1.8 -5.1,-5.2 0,-3.1 2.1,-5 5.1,-5 3,0 5,1.8 5,5 z m -9.2,10.4 c 0.8,-0.4 2.2,-0.7 4.2,-0.7 2,0 3.4,0.3 4.1,0.7 v 27.7 c -0.7,0.4 -2.1,0.7 -4.1,0.7 -2,0 -3.4,-0.3 -4.2,-0.7 z"
   id="path34" />
		<path
   class="st0"
   d="m 488.4,58.1 c -0.7,0.4 -2.1,0.7 -4.1,0.7 -2,0 -3.4,-0.3 -4.2,-0.7 V 30.7 c 1.6,-0.9 4,-1.3 6.8,-1.3 l 0.5,4.7 h 0.5 c 1.4,-3 4.3,-5.3 9.5,-5.3 4.4,0 9.5,1.6 9.5,11 v 18.3 c -0.7,0.4 -2.1,0.7 -4.1,0.7 -2,0 -3.4,-0.3 -4.2,-0.7 V 41.3 c 0,-3 -1,-4.9 -4.4,-4.9 -3,0 -4.7,1.5 -5.7,3.3 v 18.4 z"
   id="path36" />
		<path
   class="st0"
   d="m 514.2,48 c -2.7,-1.7 -3.7,-4.9 -3.7,-8.5 0,-7.1 5.2,-10.8 12.5,-10.8 2.6,0 4.7,0.5 6.4,1.1 h 8.3 c 0.7,1.7 1,4 1,6.1 h -4.1 v 0.3 c 0.5,0.5 0.9,1.9 0.9,3.6 0,6.6 -4.7,10.4 -12.2,10.4 -1.3,0 -2.6,-0.2 -3.2,-0.5 -0.6,0.4 -1,1.2 -1,1.9 0,1.6 2,2 5.8,2 8.2,0 14.1,1.6 14.1,9.2 0,7.8 -6,10.9 -15.6,10.9 -8.7,0 -14.3,-2.5 -14.3,-9.2 0,-3.5 1.8,-5.9 4.4,-6.6 v -0.4 c -1.6,-0.8 -2.4,-2.4 -2.4,-4.3 0,-2.6 1.4,-4.4 3.3,-4.9 V 48 Z m 4.3,11.8 c -1.3,0.7 -2,2 -2,3.5 0,3.2 3.2,4 7.2,4 4.6,0 7.2,-1.2 7.2,-4 0,-2.1 -1.6,-3 -7.5,-3 -2.2,0 -3.6,-0.1 -4.9,-0.5 z m 4.4,-15.6 c 3.2,0 4.8,-1.8 4.8,-4.7 0,-2.9 -1.7,-4.7 -4.8,-4.7 -3.2,0 -4.8,1.8 -4.8,4.7 0,3 1.6,4.7 4.8,4.7 z"
   id="path38" />
		<path
   class="st0"
   d="m 187.3,84.3 c -8.1,0 -13.7,4.1 -13.7,14.1 0,10 5.5,14 13.3,14 3.6,0 7.2,-0.9 9.7,-2 0.1,2.1 -0.9,5.8 -2.3,7.6 -2.5,1.2 -6,2.1 -10.1,2.1 -12.3,0 -19.6,-7.9 -19.6,-21.2 0,-14.3 8.5,-22.4 20.9,-22.4 3.3,0 6.6,0.6 8.7,1.8 1.3,1.9 1.9,5.3 1.6,7.8 -2.7,-1.1 -5.2,-1.8 -8.5,-1.8 z"
   id="path40" />
		<path
   class="st0"
   d="m 208.5,118.4 c -0.7,0.4 -2.1,0.7 -4.1,0.7 -2,0 -3.4,-0.3 -4.2,-0.7 V 77.7 c 2,-1.1 4.7,-1.7 8.3,-1.7 v 8.7 c 0,3.3 -0.3,6.8 -0.7,9.4 h 0.5 c 1.3,-2.9 4,-5.1 9.3,-5.1 4.5,0 9.7,1.6 9.7,11 v 18.3 c -0.7,0.4 -2.1,0.7 -4.1,0.7 -2,0 -3.4,-0.3 -4.2,-0.7 v -16.8 c 0,-3 -1.1,-5 -4.5,-5 -3.1,0 -4.8,1.6 -5.9,3.4 v 18.5 z"
   id="path42" />
		<path
   class="st0"
   d="m 247.4,115.9 c -1.3,2.5 -4,4.1 -7.9,4.1 -5.1,0 -9.4,-2.5 -9.4,-9.2 0,-7 5.1,-9.7 11.7,-9.7 1.9,0 3.6,0.2 5.2,0.7 V 101 c 0,-3.5 -1.7,-4.8 -5.5,-4.8 -3.3,0 -6.6,0.9 -9.2,2.4 -0.7,-2.2 -0.4,-5.8 0.9,-7.7 2.1,-1.2 5.6,-1.9 9.9,-1.9 8.3,0 12.2,2.9 12.2,11.4 v 9.9 c 0,1.8 0.8,2.2 2,2.2 1,0 1.9,-0.3 2.5,-0.7 0.2,2.3 -0.5,5.1 -1.5,6.7 -1.2,0.8 -2.8,1.3 -4.8,1.3 -3.3,0 -5.1,-1.4 -5.6,-4.1 h -0.5 z m -0.2,-8.5 c -1.2,-0.5 -2.4,-0.7 -3.8,-0.7 -3.3,0 -5,1.4 -5,3.6 0,2.2 1.7,3 4,3 1.8,0 3.7,-0.6 4.8,-2 z"
   id="path44" />
		<path
   class="st0"
   d="m 269.8,118.4 c -0.7,0.4 -2.1,0.7 -4.1,0.7 -2,0 -3.4,-0.3 -4.2,-0.7 V 91 c 1.6,-0.9 4,-1.3 6.8,-1.3 l 0.5,4.7 h 0.5 c 1.4,-3 4.3,-5.3 9.5,-5.3 4.4,0 9.5,1.6 9.5,11 v 18.3 c -0.7,0.4 -2.1,0.7 -4.1,0.7 -2,0 -3.4,-0.3 -4.2,-0.7 v -16.8 c 0,-3 -1,-4.9 -4.4,-4.9 -3,0 -4.7,1.5 -5.7,3.3 v 18.4 z"
   id="path46" />
		<path
   class="st0"
   d="m 295.7,108.3 c -2.7,-1.7 -3.7,-4.9 -3.7,-8.5 0,-7.1 5.2,-10.8 12.5,-10.8 2.6,0 4.7,0.5 6.4,1.1 h 8.3 c 0.7,1.7 1,4 1,6.1 H 316 v 0.3 c 0.5,0.5 0.9,1.9 0.9,3.6 0,6.6 -4.7,10.4 -12.2,10.4 -1.3,0 -2.6,-0.2 -3.2,-0.5 -0.6,0.4 -1,1.2 -1,1.9 0,1.6 2,2 5.8,2 8.2,0 14.1,1.6 14.1,9.2 0,7.8 -6,10.9 -15.6,10.9 -8.7,0 -14.3,-2.5 -14.3,-9.2 0,-3.5 1.8,-5.9 4.4,-6.6 v -0.4 c -1.6,-0.8 -2.4,-2.4 -2.4,-4.3 0,-2.6 1.4,-4.4 3.3,-4.9 v -0.3 z m 4.3,11.9 c -1.3,0.7 -2,2 -2,3.5 0,3.2 3.2,4 7.2,4 4.6,0 7.2,-1.2 7.2,-4 0,-2.1 -1.6,-3 -7.5,-3 -2.2,0 -3.6,-0.1 -4.9,-0.5 z m 4.4,-15.7 c 3.2,0 4.8,-1.8 4.8,-4.7 0,-2.9 -1.7,-4.7 -4.8,-4.7 -3.2,0 -4.8,1.8 -4.8,4.7 0,3 1.6,4.7 4.8,4.7 z"
   id="path48" />
		<path
   class="st0"
   d="m 329.1,107.3 c 0.3,4 3.2,6 8.9,6 3.7,0 6.9,-0.8 9,-1.7 0.2,2.2 -0.7,5 -2.1,6.5 -1.9,1.1 -5.1,2 -9.1,2 -10.1,0 -15.4,-5.8 -15.4,-15.1 0,-9.6 5.8,-15.8 14.8,-15.8 8.4,0 12.3,5.2 12.3,12.8 0,1.8 -0.3,3.9 -0.9,5.4 h -17.5 z m 10.5,-6 c 0.5,-3 -0.6,-5.9 -4.8,-5.9 -3.6,0 -5.8,2.3 -6,5.9 z"
   id="path50" />
	</g>
</g>
</svg>
